<?xml version="1.0" encoding="UTF-8" standalone="no"?>
<!-- Created with Inkscape (http://www.inkscape.org/) -->
<svg xmlns:inkscape="http://www.inkscape.org/namespaces/inkscape" xmlns:rdf="http://www.w3.org/1999/02/22-rdf-syntax-ns#" xmlns="http://www.w3.org/2000/svg" xmlns:xlink="http://www.w3.org/1999/xlink" xmlns:ns1="http://sozi.baierouge.fr" xmlns:cc="http://creativecommons.org/ns#" xmlns:sodipodi="http://sodipodi.sourceforge.net/DTD/sodipodi-0.dtd" xmlns:dc="http://purl.org/dc/elements/1.1/" id="svg3029" viewBox="0 0 230.84 182.53" version="1.1" inkscape:version="0.91 r13725">
  <g id="layer1" transform="translate(-259.58 -441.1)">
    <path id="path3007" style="stroke:#000000bf;stroke-width:3px;fill:none" d="m450.91 510.44c-2.5728 0.20615-7.6047 1.4034-11.322 1.8262-3.7177 0.42281-8.4011 0.53878-10.957 0.73047-2.5561 0.19169-2.8185-0.0991-4.3829 0.36524-1.5643 0.46433-1.5746 1.7566-4.7481 2.5567s-9.3767 0.21006-12.418 1.0957c-3.0414 0.88566-3.555 0.51291-5.8438 1.461-2.2888 0.94804-4.9954 1.4709-9.8615 2.1914-4.8661 0.72051-13.688 1.3182-19.358 1.461-5.6694 0.14271-10.652-0.31578-14.61-0.36524-3.9572-0.0495-6.6352 0-9.131 0s-3.9765 0.63511-5.8438 0-3.3262-1.5716-4.7481-3.6524-1.8778-5.1073-2.5567-8.7658c-0.67883-3.6584-0.67095-8.6436-1.0957-13.149-0.42476-4.505-0.52029-9.5364-1.461-13.879-0.94067-4.3427-2.2194-8.3763-4.0176-12.053-1.7982-3.6766-4.4436-7.766-6.5743-9.8615s-2.9316-2.0452-5.1134-3.2872c-2.1817-1.2419-5.6894-3.1498-8.0353-4.0176-2.3459-0.86779-4.285-1.7074-5.8438-1.461-1.5589 0.24647-2.2599 0.63176-2.9219 1.8262-0.66201 1.1944-1.0028 2.5796 0 4.7481 1.0028 2.1686 5.1766 5.4268 7.3048 6.2091 2.1282 0.78229 2.4446-0.65158 4.0176 0s2.795 2.1056 4.3829 4.3829c1.5879 2.2772 3.1681 6.3216 4.3829 9.4962 1.2147 3.1746 2.3137 5.8197 2.9219 9.4962 0.60823 3.6765 0.38423 8.8246 0.36523 12.418-0.019 3.5936-0.48659 6.0776-0.36523 9.131s1.0002 6.3809 1.0957 9.131c0.0956 2.7501 0.31619 5.3746-0.36524 7.3048s-1.5452 2.4064-2.9219 4.0176c-1.3768 1.6112-3.2767 3.1743-5.4786 5.4786s-4.7684 4.8323-7.67 8.4005-7.3988 9.2172-9.4962 13.149c-2.0974 3.9314-2.2585 7.1266-3.6524 9.8615-1.3939 2.7348-2.6687 4.5508-4.3829 6.5743s-4.2519 3.4375-5.8438 5.4786-2.1433 4.128-3.6524 6.5743-4.1063 5.6986-5.4786 8.0353c-1.3723 2.3366-2.0709 3.8922-2.9219 5.8438-0.85106 1.9516-2.4881 3.6917-2.1914 5.8438 0.29668 2.1522 2.7446 4.169 4.0176 5.4786s1.6811 2.921 3.2872 2.5567 1.7637-2.8634 2.5567-5.1134c0.79299-2.25 0.82628-5.8181 1.8262-8.4005s1.2102-8.091 4.0176-6.9396c2.8074 1.1515-2.2418 7.3922-2.5567 9.8615-0.31489 2.4693-0.70937 3.2512 0 4.7481 0.70937 1.497 2.143 3.7386 4.0176 3.2872 1.8747-0.45148 1.4615-3.3478 2.5567-5.8438 1.0951-2.4961 2.2178-5.8148 4.0176-9.131s4.8277-8.0908 6.9395-10.592c2.1118-2.5011 2.5786-3.1542 5.1134-4.7481 2.5347-1.5939 7.3023-1.996 10.227-4.0176 2.9244-2.0216 4.604-5.4862 6.9396-7.67s4.8915-4.1775 6.9395-5.4786 3.2833-1.8188 5.1134-2.5567 3.7519-1.5069 5.8438-1.8262c2.0919-0.31925 4.0719-0.16251 6.5743 0s5.4081 0.50049 8.4005 1.0957c2.9924 0.59522 6.5082 1.896 9.4962 2.5567 2.988 0.66063 5.5162 1.3324 8.4005 1.461 2.8843 0.12851 5.4172-0.53708 8.7657-0.73048s7.7788 0.0817 11.322-0.36524c3.5436-0.44693 7.6382-1.3046 9.8615-2.1914 2.2232-0.88681 1.971-1.7257 3.6524-2.1914 1.6814-0.46573 4.246 0.25725 6.2091 0s3.7636-1.8736 5.4786-1.461c1.715 0.41263 2.055 2.6124 3.6524 3.2872 1.5974 0.67479 3.7122 0.30643 5.4786 0.36524 1.7664 0.0588 2.9828 0 5.1134 0s5.5188 0.37262 7.67 0 3.3438-1.3361 5.1134-1.8262c1.7695-0.49012 3.8916-0.86556 5.4786-1.0957 1.587-0.23016 2.7866-0.44414 4.0176-0.36524 1.2311 0.0789 2.0952 0.0347 3.2872 0.73048 1.192 0.69574 2.5155 2.659 3.2872 3.6524 0.77166 0.99344 0.79763 1.4429 1.461 2.1914 0.66332 0.74858 1.6307 1.8489 2.5567 2.1914 0.92601 0.34255 1.7287 0.25068 2.5567 0 0.82796-0.25068 1.0951-1.2341 2.1914-1.461 1.0963-0.22689 2.8173 1.2012 4.0176 0.73047 1.2003-0.47071 1.8048-1.4416 2.1914-2.9219 0.38662-1.4803-0.28415-3.8252-0.73048-5.4786-0.44633-1.6533-0.83703-3.0541-1.8262-4.3829s-2.3072-2.3248-4.0176-3.2872c-1.7104-0.96238-4.3192-1.5886-6.2091-2.1914-1.8899-0.60288-3.2781-1.1452-5.1134-1.461-1.8352-0.31571-4.0176-0.24295-5.8438-0.36524s-3.712-0.31525-5.1134-0.36524c-1.4014-0.05-2.9388 0.96217-3.2872 0-0.34836-0.96217 1.6902-1.0564 2.1914-1.8262 0.50124-0.76979 0.1542-1.8217 0.73048-2.5567 0.57628-0.73495 1.6355-1.0908 2.5567-1.461 0.92117-0.37013 2.4631-0.1429 2.9219-0.73048 0.45877-0.58758-0.7817-1.1372 0-1.461 0.7817-0.32379 1.4021 2.0159 2.5567 2.5567 1.1546 0.54079 2.7941 0.37747 4.0176 0.36524 1.2235-0.0122 2.2523-0.24308 3.2872-0.36524 1.0348-0.12216 2.0614-0.10469 2.9219-0.36524 5.0033-2.5581-1.0653 0.37949 5.8438-1.8262 0.5371-0.56535 3.1693 0.86368 3.6524 0.36524 3.778-1.9185 6.2197-4.5826 1.8262-7.67-0.64593-0.26755-0.66528 0.43044-1.0957 0-0.43044-0.43044 0.057-1.6416 0-2.5567-0.057-0.91512-0.18583-1.5822-0.36524-2.9219s-0.29182-3.8349-0.73048-5.1134-0.96598-1.8284-1.461-2.5567c-0.49497-0.72827-0.5257-1.019-1.461-1.8262-0.93526-0.80724-4.3829-2.5567-4.3829-2.5567v-2.5567l0.73047-4.7481 0.36524-6.2091s-4.1993 2.8598-6.2091 4.3829c-2.0097 1.523-4.5428 3.4809-5.8438 4.7481s-1.0732 2.0424-2.1914 2.5567c-1.1182 0.51431-1.4448-0.20615-4.0176 0z"/>
    <path id="path3009" style="stroke:#000000bf;stroke-width:3px;fill:none" d="m468.44 504.96 5.1134-3.2872-5.1134 9.8615z"/>
    <path id="path3011" style="stroke:#000000bf;stroke-width:3px;fill:none" d="m285.09 592.99 7.67-6.9396 6.2091-4.3829 6.9395-4.0176 5.8438-5.1134 6.2091-6.2091 4.7481-3.6524 6.5743-4.0176 6.5743-4.3829"/>
    <path id="path3013" style="stroke:#000000bf;stroke-width:3px;fill:none" d="m471.73 564.86 0.73048-5.1134-1.461-4.7481-3.6524-4.3829-4.3829-2.5567-9.8615-3.2872"/>
  </g>
  <metadata>
    <rdf:RDF>
      <cc:Work>
        <dc:format>image/svg+xml</dc:format>
        <dc:type rdf:resource="http://purl.org/dc/dcmitype/StillImage"/>
        <cc:license rdf:resource="http://creativecommons.org/licenses/publicdomain/"/>
        <dc:publisher>
          <cc:Agent rdf:about="http://openclipart.org/">
            <dc:title>Openclipart</dc:title>
          </cc:Agent>
        </dc:publisher>
      </cc:Work>
      <cc:License rdf:about="http://creativecommons.org/licenses/publicdomain/">
        <cc:permits rdf:resource="http://creativecommons.org/ns#Reproduction"/>
        <cc:permits rdf:resource="http://creativecommons.org/ns#Distribution"/>
        <cc:permits rdf:resource="http://creativecommons.org/ns#DerivativeWorks"/>
      </cc:License>
    </rdf:RDF>
  </metadata>
</svg>
